<?xml version="1.0" standalone="no"?>
<!DOCTYPE svg PUBLIC "-//W3C//DTD SVG 20010904//EN"
 "http://www.w3.org/TR/2001/REC-SVG-20010904/DTD/svg10.dtd">
<svg version="1.0" xmlns="http://www.w3.org/2000/svg"
 width="320.000000pt" height="320.000000pt" viewBox="0 0 320.000000 320.000000"
 preserveAspectRatio="xMidYMid meet">
<metadata>
Created by potrace 1.11, written by Peter Selinger 2001-2013
</metadata>
<g transform="translate(0.000000,320.000000) scale(0.100000,-0.100000)"
fill="#000000" stroke="none">
<path d="M1975 2677 c-33 -4 -64 -12 -68 -16 -12 -12 -15 -86 -16 -416 -1
-165 -5 -306 -10 -313 -6 -10 -25 -3 -84 28 -174 94 -277 114 -447 86 -260
-42 -414 -218 -484 -551 -20 -93 -15 -359 9 -470 59 -275 203 -445 425 -499
189 -46 344 -19 534 93 38 22 73 38 77 35 4 -2 13 -21 20 -42 19 -60 35 -72
96 -72 l54 0 -2 1018 c-1 559 -5 1041 -8 1071 -7 61 -7 62 -96 48z m-393 -798
c70 -15 162 -59 237 -114 l61 -45 0 -433 0 -433 -32 -31 c-50 -48 -145 -101
-222 -125 -125 -38 -301 -12 -391 57 -73 55 -133 179 -167 345 -49 238 10 541
130 672 88 95 239 137 384 107z"/>
</g>
</svg>
