<?xml version="1.0" standalone="no"?>
<!DOCTYPE svg PUBLIC "-//W3C//DTD SVG 20010904//EN"
 "http://www.w3.org/TR/2001/REC-SVG-20010904/DTD/svg10.dtd">
<svg version="1.0" xmlns="http://www.w3.org/2000/svg"
 width="1024.000000pt" height="1024.000000pt" viewBox="0 0 1024.000000 1024.000000"
 preserveAspectRatio="xMidYMid meet">
<metadata>
Created by potrace 1.11, written by Peter Selinger 2001-2013
</metadata>
<g transform="translate(0.000000,1024.000000) scale(0.100000,-0.100000)"
fill="#000000" stroke="none">
<path d="M1140 10233 c-77 -8 -199 -37 -280 -65 -428 -151 -737 -505 -836
-958 -18 -82 -19 -217 -19 -4090 0 -3873 1 -4008 19 -4090 113 -514 492 -893
1006 -1006 82 -18 217 -19 4090 -19 3873 0 4008 1 4090 19 514 113 893 492
1006 1006 18 82 19 217 19 4090 0 3873 -1 4008 -19 4090 -56 254 -175 476
-353 653 -172 173 -376 285 -633 350 l-85 21 -3985 2 c-2192 0 -4001 -1 -4020
-3z m6350 -4863 l0 -3770 -575 0 -575 0 0 272 0 271 -77 -74 c-473 -455 -1163
-632 -1923 -494 -210 39 -500 149 -687 262 -613 370 -1016 1010 -1148 1823
-38 234 -48 370 -47 640 0 593 98 1044 323 1493 108 214 232 389 404 566 201
207 389 343 634 457 499 233 1148 278 1681 117 301 -91 554 -239 773 -452 l67
-65 0 1362 0 1362 575 0 575 0 0 -3770z"/>
<path d="M4733 5995 c-179 -28 -378 -103 -509 -193 -133 -89 -277 -247 -367
-400 -71 -121 -140 -301 -177 -462 -104 -451 -85 -1067 47 -1475 36 -112 131
-306 198 -406 148 -219 383 -392 630 -464 272 -78 651 -74 903 11 404 135 679
467 807 973 58 231 80 463 72 779 -10 429 -71 719 -206 985 -189 374 -488 590
-901 652 -116 18 -383 18 -497 0z"/>
</g>
</svg>
